# xmcd
#
# Track frame offsets:
# 180
# 18181
# 39766
# 53316
# 87072
# 103499
# 120540
# 137564
# 166786
# 185154
# 202251
#
# Disc length: 2993 seconds
#
#
# Revision: 0
# Processed by: cddbd v1.5.1PL0 Copyright (c) Steve Scherf et al.
# Submitted via: FreeRIP 2.931 
#
DISCID=880baf0b
DTITLE=The Wolfpack - Wolves in Cheap Clothing
DYEAR=1994
DGENRE=Blues
TTITLE0=Until You Came Along
TTITLE1=It Wasn't Me
TTITLE2=Don't Know How To Tell You
TTITLE3=The Loneliness of Silence
TTITLE4=Do It Right
TTITLE5=When I Get Home
TTITLE6=Listen, Hear
TTITLE7=The Blues In Jun(e)
TTITLE8=I Can't Rest
TTITLE9=Long Talk
TTITLE10=Wolf In Cheap Clothing
EXTD=
EXTT0=
EXTT1=
EXTT2=
EXTT3=
EXTT4=
EXTT5=
EXTT6=
EXTT7=
EXTT8=
EXTT9=
EXTT10=
PLAYORDER=
